<svg xmlns="http://www.w3.org/2000/svg" xmlns:xlink="http://www.w3.org/1999/xlink" width="20.618" height="19.572" viewBox="0 0 20.618 19.572">
  <defs>
    <style>
      .cls-1 {
        fill: none;
      }

      .cls-2 {
        clip-path: url(#clip-path);
      }

      .cls-3 {
        fill: #fff;
      }
    </style>
    <clipPath id="clip-path">
      <rect class="cls-1" width="20.618" height="19.572"/>
    </clipPath>
  </defs>
  <g id="download" class="cls-2">
    <path id="Path_24" data-name="Path 24" class="cls-3" d="M-97.94-22.478a.6.6,0,0,0,.2.139.6.6,0,0,0,.233.046.593.593,0,0,0,.23-.046.588.588,0,0,0,.2-.132l5.8-5.8a.608.608,0,0,0,0-.856.622.622,0,0,0-.858,0L-96.9-24.363v-15.49a.607.607,0,0,0-.606-.606.607.607,0,0,0-.606.606v15.489l-4.761-4.762a.621.621,0,0,0-.858,0,.607.607,0,0,0,0,.857Z" transform="translate(107.813 40.459)"/>
    <path id="Path_25" data-name="Path 25" class="cls-3" d="M-100,17.486a.607.607,0,0,0-.606.606v3.7H-118.8v-3.7a.607.607,0,0,0-.606-.606.607.607,0,0,0-.606.606v4.3a.607.607,0,0,0,.606.606H-100a.607.607,0,0,0,.606-.606v-4.3A.607.607,0,0,0-100,17.486Z" transform="translate(120.012 -3.43)"/>
  </g>
</svg>
