<svg xmlns="http://www.w3.org/2000/svg" width="389.875" height="374.28" viewBox="0 0 389.875 374.28">
  <g id="noun_super_stars_1730827" data-name="noun_super stars_1730827" transform="translate(-12.5 -14)">
    <path id="Path_48" data-name="Path 48" d="M133.967,31.5l28.56,73.614,75.407,5.812-57.759,51.3,18.049,77.206-64.257-41.9-64.257,41.9,18.049-77.206L30,110.925l75.407-5.812Z" transform="translate(73.471 73.471)"/>
    <path id="Path_49" data-name="Path 49" d="M63.487,71,74.2,98.6l28.279,2.178L80.814,120.025l6.768,28.95L63.487,133.26,39.393,148.975l6.768-28.95L24.5,100.781,52.779,98.6Z" transform="translate(50.38 239.305)"/>
    <path id="Path_50" data-name="Path 50" d="M99.488,70,110.2,97.6l28.279,2.178-21.661,19.244,6.768,28.95L99.488,132.26,75.393,147.975l6.768-28.95L60.5,99.781,88.779,97.6Z" transform="translate(201.52 235.107)"/>
    <path id="Path_51" data-name="Path 51" d="M111.488,36,122.2,63.6l28.279,2.178L128.814,85.025l6.768,28.95L111.488,98.26,87.393,113.975l6.768-28.95L72.5,65.781,100.779,63.6Z" transform="translate(251.9 92.363)"/>
    <path id="Path_52" data-name="Path 52" d="M51.487,36,62.2,63.6l28.279,2.178L68.814,85.025l6.768,28.95L51.487,98.26,27.393,113.975l6.768-28.95L12.5,65.781,40.779,63.6Z" transform="translate(0 92.363)"/>
    <path id="Path_53" data-name="Path 53" d="M81.488,14,92.2,41.6l28.279,2.178L98.814,63.025l6.768,28.95L81.488,76.26,57.393,91.975l6.768-28.95L42.5,43.781,70.779,41.6Z" transform="translate(125.95)"/>
  </g>
</svg>
